Coordinates
version=1
nRows=29
nColumns=22
inDegrees=yes

Units are S.I. units (second, meters, Newtons, ...)
If the header above contains a line with 'inDegrees', this indicates whether rotational values are in degrees (yes) or radians (no).

endheader
time	pelvis_tilt	pelvis_list	pelvis_rotation	pelvis_tx	pelvis_ty	pelvis_tz	hip_flexion_r	hip_adduction_r	hip_rotation_r	knee_angle_r	ankle_angle_r	subtalar_angle_r	hip_flexion_l	hip_adduction_l	hip_rotation_l	knee_angle_l	ankle_angle_l	subtalar_angle_l	lumbar_extension	lumbar_bending	lumbar_rotation
      3.53000000	      3.50224257	     -1.37356828	    -26.78629561	     -0.49368383	      0.88847848	     -0.12782703	    -12.24739806	      3.14074054	     -6.04077830	    -14.28986792	     24.71258615	     -6.30060686	     23.63732745	     -5.89865225	    -12.15197359	    -20.53539549	      7.48934504	      3.50771054	    -11.27141563	     -2.25320219	      6.42450192
      3.54000000	      3.40610064	     -1.37349163	    -27.04880866	     -0.48884786	      0.88787262	     -0.12684277	    -12.43712296	      3.01069758	     -5.79155111	    -14.36983409	     24.74846234	     -6.19423364	     23.62834969	     -5.89916168	    -12.29285256	    -20.70731791	      7.42626967	      3.18101131	    -11.20495976	     -2.23085191	      6.50394361
      3.55000000	      3.30521817	     -1.37164034	    -27.30244493	     -0.48386517	      0.88726437	     -0.12588724	    -12.63517842	      2.87376910	     -5.57283758	    -14.43777330	     24.77743021	     -6.04935437	     23.59762649	     -5.89340506	    -12.40602039	    -20.91657976	      7.39751615	      2.72899524	    -11.12800880	     -2.20551887	      6.54576032
      3.56000000	      3.18465717	     -1.38474529	    -27.58631459	     -0.47882874	      0.88666513	     -0.12490092	    -12.81174882	      2.75021657	     -5.31211406	    -14.52536409	     24.76013782	     -5.94649657	     23.55200693	     -5.92007172	    -12.50189843	    -21.15697394	      7.28668542	      2.47825682	    -11.04147056	     -2.16643293	      6.64215462
      3.57000000	      3.05752077	     -1.39798269	    -27.84349903	     -0.47365296	      0.88607794	     -0.12398012	    -13.00396102	      2.63008823	     -5.06775163	    -14.58237283	     24.77004549	     -5.85219135	     23.50122920	     -5.93394023	    -12.55859998	    -21.42418472	      7.11301697	      2.25989412	    -10.94910327	     -2.11358521	      6.66307746
      3.58000000	      2.93249117	     -1.38695521	    -28.13429008	     -0.46838047	      0.88552427	     -0.12305530	    -13.15548671	      2.46448271	     -4.82437109	    -14.70313169	     24.71251287	     -5.64040227	     23.43386920	     -5.92684150	    -12.61859933	    -21.70155626	      7.01680393	      1.72164634	    -10.84340524	     -2.09539111	      6.74550925
      3.59000000	      2.79750905	     -1.38441770	    -28.37302624	     -0.46297902	      0.88502547	     -0.12222803	    -13.33245441	      2.32141473	     -4.59623987	    -14.77390196	     24.64149965	     -5.55904149	     23.38645757	     -5.90446276	    -12.58347993	    -22.00377593	      6.69651126	      1.53960726	    -10.73647762	     -2.05253843	      6.76600432
      3.60000000	      2.65406697	     -1.34284248	    -28.63986210	     -0.45749002	      0.88455595	     -0.12140531	    -13.43982360	      2.12699917	     -4.35765780	    -14.92662789	     24.54519875	     -5.33275135	     23.37347898	     -5.85950836	    -12.57680490	    -22.34610603	      6.46235820	      1.03271855	    -10.59597098	     -2.05271345	      6.83695454
      3.61000000	      2.53623893	     -1.30602462	    -28.82942577	     -0.45184134	      0.88421002	     -0.12070207	    -13.61138514	      1.94079044	     -4.14371180	    -15.02247201	     24.41238823	     -5.25261844	     23.37169853	     -5.77315726	    -12.47094899	    -22.73253434	      6.07244701	      0.84419654	    -10.48559537	     -2.04711032	      6.80994124
      3.62000000	      2.38708542	     -1.22138491	    -29.01708388	     -0.44610178	      0.88386858	     -0.12006085	    -13.67480629	      1.71266346	     -3.95063191	    -15.22079331	     24.26999128	     -4.97424973	     23.46255627	     -5.65666258	    -12.35102986	    -23.19165942	      5.77502177	      0.28412538	    -10.31516975	     -2.07101469	      6.82281463
      3.63000000	      2.29873262	     -1.14003771	    -29.15902448	     -0.44020703	      0.88372728	     -0.11946686	    -13.82559418	      1.46781377	     -3.75101308	    -15.37820907	     24.04348601	     -4.89941829	     23.51409914	     -5.49679405	    -12.19190145	    -23.68655634	      5.41912517	      0.11340912	    -10.20411003	     -2.11991141	      6.80190182
      3.64000000	      2.15466621	     -1.01457155	    -29.26280484	     -0.43420532	      0.88353718	     -0.11899283	    -13.84638434	      1.20551671	     -3.61028656	    -15.64130918	     23.86773578	     -4.59499621	     23.69580348	     -5.30558337	    -11.97004572	    -24.27233656	      5.17477927	     -0.39012842	    -10.01004961	     -2.16948798	      6.81472755
      3.65000000	      2.10601426	     -0.88982183	    -29.34729945	     -0.42804380	      0.88359910	     -0.11850985	    -13.96964737	      0.90093941	     -3.42738682	    -15.89525681	     23.53514763	     -4.51727793	     23.75860945	     -5.06126773	    -11.78318340	    -24.83555308	      5.02838657	     -0.52668141	     -9.90295698	     -2.27002174	      6.78523269
      3.66000000	      1.98768320	     -0.73676157	    -29.38042141	     -0.42178471	      0.88358741	     -0.11814222	    -13.96512835	      0.60630507	     -3.32494941	    -16.23955828	     23.26079259	     -4.06595184	     23.94022795	     -4.80242968	    -11.53056064	    -25.46148896	      4.98507294	     -1.04041702	     -9.70574475	     -2.35337479	      6.79529457
      3.67000000	      1.96357189	     -0.58977425	    -29.41460709	     -0.41540049	      0.88382058	     -0.11775489	    -14.05547150	      0.27216425	     -3.14890618	    -16.58508572	     22.88395009	     -4.00741016	     23.95814280	     -4.50190984	    -11.36174241	    -25.99266615	      4.98457901	     -1.10435537	     -9.59978581	     -2.48143613	      6.80259971
      3.68000000	      1.87357792	     -0.38357097	    -29.42428038	     -0.40892479	      0.88396870	     -0.11744651	    -13.99379664	     -0.08985466	     -3.03830642	    -17.04080791	     22.53946149	     -3.52119028	     24.04968067	     -4.16853181	    -11.21632916	    -26.49691620	      5.04353664	     -1.44727764	     -9.38115463	     -2.63040171	      6.83188817
      3.69000000	      1.84878923	     -0.20408695	    -29.43471258	     -0.40234027	      0.88431073	     -0.11713262	    -14.00442960	     -0.45992831	     -2.89478811	    -17.50029945	     22.07483759	     -3.14970328	     23.98053048	     -3.82413575	    -11.14728570	    -26.88019428	      5.22152231	     -1.61071079	     -9.23476182	     -2.78784224	      6.87878579
      3.70000000	      1.82072708	     -0.01693552	    -29.43953450	     -0.39569566	      0.88471169	     -0.11686045	    -13.96829992	     -0.83590439	     -2.73698462	    -18.02504603	     21.57306653	     -2.82883569	     23.84938895	     -3.46896025	    -11.13759218	    -27.15343342	      5.42606640	     -1.70652838	     -9.07383050	     -2.94802238	      6.92533312
      3.71000000	      1.79614342	      0.17159241	    -29.44774159	     -0.38899426	      0.88518504	     -0.11661093	    -13.89676635	     -1.21645341	     -2.56291506	    -18.60749117	     21.00629635	     -2.48730377	     23.64052100	     -3.10855929	    -11.19840502	    -27.30960453	      5.67701659	     -1.78231961	     -8.90612533	     -3.11004849	      6.97502771
      3.72000000	      1.78094565	      0.34076771	    -29.45814686	     -0.38227220	      0.88575340	     -0.11640608	    -13.79378177	     -1.58735768	     -2.39276862	    -19.26244972	     20.34539956	     -2.02841497	     23.34797379	     -2.75063226	    -11.28483796	    -27.35635098	      5.94079766	     -1.87131201	     -8.75659847	     -3.25460971	      7.04829674
      3.73000000	      1.75517215	      0.50909749	    -29.47293269	     -0.37551964	      0.88637095	     -0.11618671	    -13.64181816	     -1.94799270	     -2.19580609	    -19.96986410	     19.61966625	     -1.63519105	     23.00710076	     -2.40205522	    -11.43258606	    -27.31262483	      6.23347894	     -1.92620507	     -8.58130816	     -3.39545940	      7.09604019
      3.74000000	      1.72510589	      0.67252639	    -29.51671881	     -0.36877502	      0.88704816	     -0.11595111	    -13.42642505	     -2.30718397	     -1.96129085	    -20.76002018	     18.82490289	     -1.26688219	     22.61582266	     -2.06739843	    -11.64258900	    -27.18637031	      6.54305562	     -1.96625927	     -8.39350332	     -3.52768927	      7.14972747
      3.75000000	      1.69996355	      0.80996319	    -29.55513706	     -0.36207026	      0.88779446	     -0.11572456	    -13.16804474	     -2.63668885	     -1.71002898	    -21.63035902	     17.92764461	     -0.88396477	     22.19190604	     -1.74943388	    -11.84125096	    -27.03283891	      6.84326899	     -2.00156933	     -8.22398805	     -3.64115309	      7.21027866
      3.76000000	      1.67133750	      0.92840939	    -29.60486411	     -0.35539985	      0.88860375	     -0.11547413	    -12.84837771	     -2.94392075	     -1.43422545	    -22.59200289	     16.93664550	     -0.46121774	     21.73423930	     -1.45227777	    -12.05365826	    -26.82988335	      7.13579085	     -2.03203768	     -8.05308530	     -3.73500159	      7.26115599
      3.77000000	      1.64297731	      1.01202265	    -29.63222241	     -0.34876768	      0.88947051	     -0.11523254	    -12.47836764	     -3.21019336	     -1.18740770	    -23.65238498	     15.83890865	      0.08600525	     21.25065230	     -1.17216661	    -12.20390071	    -26.60172214	      7.41981619	     -2.06099412	     -7.89910861	     -3.79714975	      7.28899033
      3.78000000	      1.60798942	      1.08714696	    -29.70975583	     -0.34227616	      0.89034396	     -0.11490051	    -11.99402825	     -3.46176554	     -0.85150125	    -24.87200403	     14.73687685	      0.32831768	     20.76876854	     -0.93148101	    -12.41388062	    -26.37719170	      7.68501110	     -2.04868616	     -7.74079970	     -3.86117958	      7.37760406
      3.79000000	      1.57424509	      1.15202330	    -29.78559855	     -0.33587237	      0.89122224	     -0.11454428	    -11.42747328	     -3.69152009	     -0.49362678	    -26.22295732	     13.56981110	      0.63315427	     20.28959289	     -0.70188356	    -12.60880414	    -26.16176549	      7.94333062	     -2.03302054	     -7.58830281	     -3.92070180	      7.43792501
      3.80000000	      1.53718592	      1.19575328	    -29.85618128	     -0.32958288	      0.89208564	     -0.11418296	    -10.76245276	     -3.89122023	     -0.15245031	    -27.73752775	     12.36290744	      0.94349807	     19.81026481	     -0.49084070	    -12.76180416	    -25.94359978	      8.19798809	     -2.00928826	     -7.45002348	     -3.96296661	      7.50942012
      3.81000000	      1.51062926	      1.24609659	    -29.93576343	     -0.32342367	      0.89291758	     -0.11378454	    -10.00206846	     -4.08437977	      0.22449913	    -29.40585685	     11.15034426	      1.13741302	     19.33394540	     -0.28028466	    -12.93807806	    -25.73217038	      8.44467697	     -1.97663635	     -7.32227636	     -4.02446181	      7.53620826
